<?xml version="1.0" encoding="UTF-8"?>
<svg id="Warstwa_2" data-name="Warstwa 2" xmlns="http://www.w3.org/2000/svg" xmlns:xlink="http://www.w3.org/1999/xlink" viewBox="0 0 548.85 743.29">
  <defs>
    <style>
      .cls-1 {
        fill: url(#linear-gradient);
      }
    </style>
    <linearGradient id="linear-gradient" x1="0" y1="-15653.95" x2="548.85" y2="-15653.95" gradientTransform="translate(0 -15282.31) scale(1 -1)" gradientUnits="userSpaceOnUse">
      <stop offset="0" stop-color="#eae69f"/>
      <stop offset=".15" stop-color="#eddb8d"/>
      <stop offset=".32" stop-color="#d9c076"/>
      <stop offset=".5" stop-color="#caaa60"/>
      <stop offset=".7" stop-color="#c19d53"/>
      <stop offset=".85" stop-color="#b68d44"/>
      <stop offset="1" stop-color="#a8803d"/>
    </linearGradient>
  </defs>
  <g id="Layer_1" data-name="Layer 1">
    <path class="cls-1" d="m548.85,564.84s-7.26-43.87-40.91-50.21c0,0,12.91-1,20.27,3.99,0,0-9.66-20.02-27.23-20.76,0,0,3.07-4.5,11.04-4.09,0,0-29.04-27.2-76.9-18,0,0-4.91,7.16-10.23,9.82,0,0,17.18-19.63,20.86-37.22,0,0-24.34,23.11-50.52,24.14-26.18,1.02-48.27,26.18-47.04,41.31,1.23,15.14-41.42,14.32-8.28,56.65,0,0,5.52-25.46,27.61-17.79,22.09,7.67,31.6,1.53,31.6,1.53,0,0,.61,5.22-14.11,7.36-14.73,2.15-23.21,3.58-24.34,13.6,0,0,33.42-5.37,31.43,19.78-.51,6.48-4.77,12.05-10.82,14.44-60.37,23.87-132.02-50.89-95.98-121.97,35.94-70.88,116.43-70.88,176.35-70.88-16.19-11.57-83.78-32.68-114.48-45.45C105,270.37,44.23,0,44.23,0-14.83,210.38,217.45,393.61,217.45,393.61,58.58,321.35.23,157.13.23,157.13c-8.09,221.22,197.4,316.05,197.4,316.05-63.2-2.36-191.69-106.41-191.69-106.41,61.83,146.21,200.94,168.77,200.94,168.77-50.29,10.85-138.58-40.71-138.58-40.71,64.05,92.13,147.62,82.91,147.62,82.91-30,14.67-83.12,3.89-83.12,3.89,41.29,51.27,95.78,44.2,95.78,44.2-16.06,21.63-92.16,30.35-92.16,30.35,58.49,37.8,100.73,10.58,100.73,10.58-7.94,27.5-64.16,74.95-64.16,74.95,94.79,9.76,117.39-69.01,117.39-69.01,5.72,20.94-28.45,70.62-28.45,70.62,47.87-20.86,53.44-58.41,53.44-58.41,6.02,11.95,5.86,16.59,1.84,27.99,16.18-7.39,30.87-18.37,43.57-34.15,1.87,17.2,12.14,37.96,38.33,64.57,0,0-3.53-44.51,31.18-68.88,34.71-24.36,45.31-62.43,45.31-62.43,0,0,2.45,26.59-20.04,50.31,0,0,65.45-11.45,56.86-79.36,0,0,18.41,27.41-6.96,72.4,0,0,61.77-46.63,29.45-99.81,0,0,9.41,4.81,13.91,9.31Zm-157.59-45.98s5.06.62,6.44.02c0,0-10.95,6.28-20.45-1.68,0,0-7.01.18-8.95-1.03,0,0,8.88.66,13.35-5.48,4.47-6.14,14.52-10.66,25.82-4.58,0,0-9.56-1.71-11.56,1.95,0,0,.76,7.77-4.64,10.8Z"/>
  </g>
</svg>